<svg width="67" height="67" viewBox="0 0 67 67" fill="none" xmlns="http://www.w3.org/2000/svg">
<circle cx="33.5" cy="33.5" r="33.5" fill="#E4D43E"/>
<path fill-rule="evenodd" clip-rule="evenodd" d="M32.9197 12.2926C33.2482 12.1009 33.6207 12 34 12C34.3793 12 34.7518 12.1009 35.0803 12.2926L51.9197 22.1189C52.2482 22.3106 52.5209 22.5862 52.7105 22.9182C52.9002 23.2501 53 23.6267 53 24.01V41.1406C53 42.2905 52.7005 43.4201 52.1316 44.416C51.5627 45.4118 50.7445 46.2388 49.7592 46.8137L37.2408 54.1223C36.2555 54.6973 35.1378 55 34 55C32.8622 55 31.7445 54.6973 30.7592 54.1223L18.2408 46.8159C17.2555 46.2409 16.4373 45.414 15.8684 44.4182C15.2995 43.4223 15 42.2927 15 41.1428V24.01C15 23.6267 15.0998 23.2501 15.2895 22.9182C15.4791 22.5862 15.7518 22.3106 16.0803 22.1189L32.9197 12.2926ZM34 20.7345C34.573 20.7345 35.1226 20.9646 35.5277 21.3741C35.9329 21.7836 36.1606 22.339 36.1606 22.9181V32.5764L44.4355 37.4044C44.6832 37.5467 44.9006 37.7372 45.0752 37.9648C45.2498 38.1924 45.3781 38.4526 45.4527 38.7305C45.5274 39.0085 45.5469 39.2986 45.5102 39.5841C45.4735 39.8697 45.3812 40.1451 45.2387 40.3945C45.0963 40.6439 44.9064 40.8624 44.6801 41.0373C44.4537 41.2122 44.1954 41.3402 43.9199 41.4138C43.6444 41.4874 43.3573 41.5052 43.075 41.4662C42.7927 41.4272 42.5208 41.3321 42.275 41.1865L34 36.3584L25.725 41.1865C25.4792 41.3321 25.2073 41.4272 24.925 41.4662C24.6427 41.5052 24.3556 41.4874 24.0801 41.4138C23.8046 41.3402 23.5463 41.2122 23.3199 41.0373C23.0936 40.8624 22.9037 40.6439 22.7613 40.3945C22.6188 40.1451 22.5265 39.8697 22.4898 39.5841C22.4531 39.2986 22.4726 39.0085 22.5473 38.7305C22.6219 38.4526 22.7502 38.1924 22.9248 37.9648C23.0994 37.7372 23.3168 37.5467 23.5645 37.4044L31.8394 32.5764V22.9181C31.8394 22.339 32.0671 21.7836 32.4722 21.3741C32.8774 20.9646 33.427 20.7345 34 20.7345Z" fill="#373737"/>
</svg>
