<svg width="75" height="75" viewBox="0 0 75 75" fill="none" xmlns="http://www.w3.org/2000/svg">
<circle cx="37.5" cy="37.5" r="37.5" fill="#E4D43E"/>
<path d="M37.5 15C43.4674 15 49.1903 17.3705 53.4099 21.5901C57.6295 25.8097 60 31.5326 60 37.5C60 43.4674 57.6295 49.1903 53.4099 53.4099C49.1903 57.6295 43.4674 60 37.5 60C31.5326 60 25.8097 57.6295 21.5901 53.4099C17.3705 49.1903 15 43.4674 15 37.5C15 31.5326 17.3705 25.8097 21.5901 21.5901C25.8097 17.3705 31.5326 15 37.5 15ZM35.3906 25.5469V37.5C35.3906 38.2031 35.7422 38.8623 36.3311 39.2578L44.7686 44.8828C45.7354 45.5332 47.0449 45.2695 47.6953 44.2939C48.3457 43.3184 48.082 42.0176 47.1064 41.3672L39.6094 36.375V25.5469C39.6094 24.3779 38.6689 23.4375 37.5 23.4375C36.3311 23.4375 35.3906 24.3779 35.3906 25.5469Z" fill="#373737"/>
</svg>
