<svg width="45" height="45" viewBox="0 0 45 45" fill="none" xmlns="http://www.w3.org/2000/svg">
<path fill-rule="evenodd" clip-rule="evenodd" d="M31.5269 1.39014L25.5 9.99996L26.7708 15.7187C27.1791 15.9854 27.5614 16.2919 27.9119 16.6345C28.6263 17.3328 29.1941 18.1668 29.5818 19.0875C29.9695 20.0082 30.1693 20.9971 30.1696 21.9961C30.1698 22.9952 29.9705 23.9842 29.5832 24.9051C29.196 25.826 28.6287 26.6603 27.9146 27.359C27.2005 28.0576 26.354 28.6066 25.4248 28.9736C25.3568 29.0004 25.2884 29.0263 25.2197 29.0511L22 34.4999L30.338 43.0906C33.3413 41.9744 36.1007 40.219 38.4099 37.9098C42.6295 33.6903 45 27.9673 45 21.9999C45 16.0326 42.6295 10.3096 38.4099 6.09006C36.4089 4.08906 34.0698 2.50388 31.5269 1.39014ZM13.2501 1.48925L22 11V14.528C20.2254 14.687 18.559 15.4737 17.306 16.7557C15.9359 18.1574 15.1691 20.0398 15.1696 21.9999C15.17 23.96 15.9379 25.842 17.3086 27.243C17.8196 27.7654 18.3993 28.2054 19.027 28.5541L17 31.9999L19.5 38.4999L16.8593 43.7814C15.8497 43.5199 14.8574 43.188 13.8896 42.7872C11.1598 41.6565 8.67942 39.9991 6.5901 37.9098C4.50078 35.8205 2.84344 33.3401 1.71271 30.6103C0.58198 27.8805 0 24.9547 0 21.9999C0 19.0452 0.58198 16.1194 1.71271 13.3896C2.84344 10.6598 4.50078 8.17938 6.5901 6.09006C8.51507 4.1651 10.772 2.60682 13.2501 1.48925ZM22 18.2834V23.4999L20.8901 25.3868C20.507 25.2047 20.154 24.9572 19.8484 24.6516C19.1451 23.9483 18.75 22.9945 18.75 21.9999C18.75 21.0054 19.1451 20.0516 19.8484 19.3483C20.4327 18.7639 21.19 18.3924 22 18.2834Z" fill="#9A9A9A"/>
<path d="M27 3L24.5 7L22.5 1L27 3Z" fill="#9A9A9A"/>
<path d="M24.5 41L22.5 38.5L20 42L24.5 41Z" fill="#9A9A9A"/>
</svg>
