<svg width="24" height="24" viewBox="0 0 24 24" fill="none" xmlns="http://www.w3.org/2000/svg">
<circle cx="12" cy="12" r="12" fill="#E4D43E"/>
<path d="M21.9385 15.78C21.8979 15.8469 21.8396 15.9025 21.7695 15.9411C21.6993 15.9797 21.6197 16 21.5386 16H10.4611C10.3801 15.9999 10.3006 15.9795 10.2305 15.9409C10.1604 15.9022 10.1022 15.8467 10.0617 15.7798C10.0213 15.713 9.99998 15.6371 10 15.5599C10 15.4828 10.0213 15.4069 10.0618 15.3401C10.9405 13.8921 12.2947 12.8539 13.8749 12.3617C13.0933 11.9182 12.4859 11.2423 12.1463 10.4379C11.8066 9.63358 11.7533 8.74517 11.9946 7.90915C12.2359 7.07313 12.7585 6.33572 13.482 5.81017C14.2056 5.28463 15.0902 5 15.9999 5C16.9096 5 17.7941 5.28463 18.5177 5.81017C19.2412 6.33572 19.7638 7.07313 20.0051 7.90915C20.2464 8.74517 20.1931 9.63358 19.8535 10.4379C19.5138 11.2423 18.9065 11.9182 18.1248 12.3617C19.7051 12.8539 21.0592 13.8921 21.9379 15.3401C21.9785 15.4069 21.9999 15.4828 22 15.56C22.0001 15.6372 21.9789 15.7131 21.9385 15.78Z" fill="#9A9A9A"/>
<path d="M13.9385 15.78C13.8979 15.8469 13.8396 15.9025 13.7695 15.9411C13.6993 15.9797 13.6197 16 13.5386 16H2.46109C2.38011 15.9999 2.30058 15.9795 2.23047 15.9409C2.16037 15.9022 2.10217 15.8467 2.06172 15.7798C2.02126 15.713 1.99998 15.6371 2 15.5599C2.00002 15.4828 2.02135 15.4069 2.06184 15.3401C2.94054 13.8921 4.29465 12.8539 5.87493 12.3617C5.09325 11.9182 4.48594 11.2423 4.14625 10.4379C3.80657 9.63358 3.75329 8.74517 3.9946 7.90915C4.23592 7.07313 4.75848 6.33572 5.48204 5.81017C6.2056 5.28463 7.09015 5 7.99986 5C8.90956 5 9.79411 5.28463 10.5177 5.81017C11.2412 6.33572 11.7638 7.07313 12.0051 7.90915C12.2464 8.74517 12.1931 9.63358 11.8535 10.4379C11.5138 11.2423 10.9065 11.9182 10.1248 12.3617C11.7051 12.8539 13.0592 13.8921 13.9379 15.3401C13.9785 15.4069 13.9999 15.4828 14 15.56C14.0001 15.6372 13.9789 15.7131 13.9385 15.78Z" fill="#9A9A9A"/>
<path d="M18.9282 18.74C18.8809 18.8191 18.8129 18.8847 18.731 18.9304C18.6492 18.976 18.5563 19 18.4617 19H5.53794C5.44346 18.9999 5.35067 18.9758 5.26889 18.9301C5.1871 18.8845 5.1192 18.8188 5.07201 18.7398C5.02481 18.6608 4.99998 18.5712 5 18.4799C5.00002 18.3887 5.02491 18.2991 5.07214 18.2201C6.0973 16.5089 7.67709 15.2819 9.52075 14.7002C8.6088 14.176 7.90026 13.3773 7.50396 12.4267C7.10766 11.476 7.0455 10.4261 7.32704 9.43808C7.60857 8.45006 8.21822 7.57858 9.06238 6.95748C9.90654 6.33638 10.9385 6 11.9998 6C13.0612 6 14.0931 6.33638 14.9373 6.95748C15.7814 7.57858 16.3911 8.45006 16.6726 9.43808C16.9542 10.4261 16.892 11.476 16.4957 12.4267C16.0994 13.3773 15.3909 14.176 14.4789 14.7002C16.3226 15.2819 17.9024 16.5089 18.9275 18.2201C18.9749 18.2991 18.9999 18.3887 19 18.48C19.0001 18.5713 18.9754 18.6609 18.9282 18.74Z" fill="#373737"/>
</svg>
