<svg width="194" height="193" viewBox="0 0 194 193" fill="none" xmlns="http://www.w3.org/2000/svg">
<path d="M174.598 89.2733C173.523 90.3527 172.246 91.2091 170.84 91.7934C169.434 92.3778 167.926 92.6786 166.404 92.6786C164.881 92.6786 163.374 92.3778 161.967 91.7934C160.561 91.2091 159.284 90.3527 158.21 89.2733L108.573 39.5953V181.422C108.573 184.493 107.355 187.438 105.185 189.609C103.016 191.78 100.073 193 97.0055 193C93.9374 193 90.9951 191.78 88.8257 189.609C86.6563 187.438 85.4375 184.493 85.4375 181.422V39.5953L35.782 89.2733C33.6088 91.4483 30.6614 92.6702 27.588 92.6702C24.5147 92.6702 21.5672 91.4483 19.3941 89.2733C17.2209 87.0983 16 84.1484 16 81.0724C16 77.9965 17.2209 75.0466 19.3941 72.8716L88.8018 3.40526C89.8766 2.32591 91.1536 1.4695 92.5597 0.885152C93.9658 0.300801 95.4733 0 96.9958 0C98.5183 0 100.026 0.300801 101.432 0.885152C102.838 1.4695 104.115 2.32591 105.19 3.40526L174.598 72.8716C175.676 73.9472 176.532 75.2253 177.116 76.6326C177.699 78.0398 178 79.5487 178 81.0724C178 82.5962 177.699 84.105 177.116 85.5123C176.532 86.9196 175.676 88.1977 174.598 89.2733Z" fill="#373737"/>
</svg>
