<svg width="194" height="193" viewBox="0 0 194 193" fill="none" xmlns="http://www.w3.org/2000/svg">
<g clip-path="url(#clip0_235_229)">
<path d="M19.4022 103.727C20.4769 102.647 21.7539 101.791 23.16 101.206C24.5661 100.622 26.0736 100.321 27.5961 100.321C29.1187 100.321 30.6262 100.622 32.0323 101.206C33.4384 101.791 34.7154 102.647 35.7901 103.727L85.4263 153.405L85.4263 11.5776C85.4263 8.50699 86.6451 5.56216 88.8145 3.39091C90.9839 1.21967 93.9263 -0.00012207 96.9943 -0.00012207C100.062 -0.00012207 103.005 1.21967 105.174 3.39091C107.343 5.56216 108.562 8.50699 108.562 11.5776L108.562 153.405L158.218 103.727C160.391 101.552 163.338 100.33 166.412 100.33C169.485 100.33 172.433 101.552 174.606 103.727C176.779 105.902 178 108.852 178 111.927C178 115.003 176.779 117.953 174.606 120.128L105.198 189.595C104.123 190.674 102.846 191.53 101.44 192.115C100.034 192.699 98.5264 193 97.0039 193C95.4814 193 93.9739 192.699 92.5678 192.115C91.1617 191.53 89.8847 190.674 88.81 189.595L19.4022 120.128C18.3237 119.053 17.468 117.775 16.8842 116.367C16.3003 114.96 15.9998 113.451 15.9998 111.927C15.9998 110.404 16.3003 108.895 16.8842 107.488C17.468 106.08 18.3237 104.802 19.4022 103.727Z" fill="#373737"/>
</g>
<defs>
<clipPath id="clip0_235_229">
<rect width="194" height="193" fill="white"/>
</clipPath>
</defs>
</svg>
