<svg width="20" height="20" viewBox="0 0 20 20" fill="none" xmlns="http://www.w3.org/2000/svg">
<path d="M17.2966 4.45417C17.2182 4.36401 17.1214 4.2917 17.0128 4.2421C16.9041 4.19251 16.786 4.16679 16.6666 4.16667H5.15075L4.98825 3.19667C4.9559 3.00208 4.85558 2.82528 4.70512 2.69772C4.55467 2.57015 4.36384 2.50009 4.16659 2.5H2.29159C2.07057 2.5 1.85861 2.5878 1.70233 2.74408C1.54605 2.90036 1.45825 3.11232 1.45825 3.33333C1.45825 3.55435 1.54605 3.76631 1.70233 3.92259C1.85861 4.07887 2.07057 4.16667 2.29159 4.16667H3.46075L5.01075 13.47L5.04825 13.5733L5.09325 13.6992L5.19325 13.8483L5.27242 13.9417L5.43325 14.05L5.52659 14.1042C5.6235 14.1447 5.72738 14.1659 5.83242 14.1667H14.9999C15.2209 14.1667 15.4329 14.0789 15.5892 13.9226C15.7455 13.7663 15.8333 13.5543 15.8333 13.3333C15.8333 13.1123 15.7455 12.9004 15.5892 12.7441C15.4329 12.5878 15.2209 12.5 14.9999 12.5H6.53909L6.40075 11.6667H15.8333C16.0338 11.6667 16.2276 11.5944 16.3791 11.4631C16.5307 11.3317 16.6298 11.1502 16.6583 10.9517L17.4916 5.11833C17.5085 5.00012 17.4998 4.87967 17.4661 4.76509C17.4325 4.65052 17.3747 4.54449 17.2966 4.45417ZM15.7058 5.83333L15.4683 7.5H12.4999V5.83333H15.7058ZM11.6666 5.83333V7.5H9.16658V5.83333H11.6666ZM11.6666 8.33333V10H9.16658V8.33333H11.6666ZM8.33325 5.83333V7.5H5.83325L5.70992 7.525L5.42825 5.83333H8.33325ZM5.84492 8.33333H8.33325V10H6.12242L5.84492 8.33333ZM12.4999 10V8.33333H15.3483L15.1108 10H12.4999Z" fill="#E4D43E"/>
<path d="M7.08325 17.5C7.77361 17.5 8.33325 16.9404 8.33325 16.25C8.33325 15.5596 7.77361 15 7.08325 15C6.3929 15 5.83325 15.5596 5.83325 16.25C5.83325 16.9404 6.3929 17.5 7.08325 17.5Z" fill="#E4D43E"/>
<path d="M14.5833 17.5C15.2736 17.5 15.8333 16.9404 15.8333 16.25C15.8333 15.5596 15.2736 15 14.5833 15C13.8929 15 13.3333 15.5596 13.3333 16.25C13.3333 16.9404 13.8929 17.5 14.5833 17.5Z" fill="#E4D43E"/>
</svg>
