<svg width="45" height="45" viewBox="0 0 45 45" fill="none" xmlns="http://www.w3.org/2000/svg">
<path d="M22.5 15C23.4988 14.9774 24.492 15.1546 25.4213 15.5211C26.3507 15.8877 27.1975 16.4362 27.9119 17.1345C28.6263 17.8328 29.1941 18.6668 29.5818 19.5875C29.9695 20.5083 30.1693 21.4972 30.1696 22.4962C30.1698 23.4952 29.9705 24.4842 29.5832 25.4052C29.196 26.3261 28.6287 27.1604 27.9146 27.859C27.2005 28.5577 26.354 29.1066 25.4248 29.4736C24.4957 29.8407 23.5025 30.0183 22.5038 29.9962C20.5441 29.9529 18.6794 29.1442 17.3086 27.7431C15.9379 26.342 15.17 24.46 15.1696 22.5C15.1691 20.5399 15.9359 18.6575 17.306 17.2557C18.676 15.854 20.5404 15.0443 22.5 15ZM22.5 26.25C21.5054 26.25 20.5516 25.8549 19.8484 25.1516C19.1451 24.4484 18.75 23.4946 18.75 22.5C18.75 21.5054 19.1451 20.5516 19.8484 19.8484C20.5516 19.1451 21.5054 18.75 22.5 18.75C23.4946 18.75 24.4484 19.1451 25.1516 19.8484C25.8549 20.5516 26.25 21.5054 26.25 22.5C26.25 23.4946 25.8549 24.4484 25.1516 25.1516C24.4484 25.8549 23.4946 26.25 22.5 26.25ZM22.5 0C19.5453 -4.40291e-08 16.6194 0.581979 13.8896 1.71271C11.1598 2.84344 8.67942 4.50078 6.5901 6.5901C4.50078 8.67942 2.84344 11.1598 1.71271 13.8896C0.58198 16.6194 0 19.5453 0 22.5C0 25.4547 0.58198 28.3806 1.71271 31.1104C2.84344 33.8402 4.50078 36.3206 6.5901 38.4099C8.67942 40.4992 11.1598 42.1566 13.8896 43.2873C16.6194 44.418 19.5453 45 22.5 45C28.4674 45 34.1903 42.6295 38.4099 38.4099C42.6295 34.1903 45 28.4674 45 22.5C45 16.5326 42.6295 10.8097 38.4099 6.5901C34.1903 2.37053 28.4674 8.89208e-08 22.5 0Z" fill="#E4D43E"/>
</svg>
