<svg width="217" height="217" viewBox="0 0 217 217" fill="none" xmlns="http://www.w3.org/2000/svg">
<path d="M108.5 9.94092C54.067 9.94092 9.94141 54.0665 9.94141 108.5C9.94141 162.933 54.067 207.058 108.5 207.058C162.933 207.058 207.059 162.933 207.059 108.5C207.059 54.0665 162.933 9.94092 108.5 9.94092ZM117.011 161.936V175.817H103.733V162.092C81.9447 159.108 72.4035 141.206 72.4035 141.206L85.966 129.861C85.966 129.861 94.6257 144.935 110.29 144.935C118.943 144.935 125.507 140.304 125.507 132.39C125.507 113.891 75.6653 116.135 75.6653 81.8154C75.6653 66.8966 87.4647 56.1484 103.726 53.6054V39.7377H117.004V53.6054C128.342 55.0973 141.769 61.0648 141.769 73.9017V83.748H124.165V78.974C124.165 74.0509 117.892 70.7687 110.874 70.7687C101.922 70.7687 95.3648 75.2444 95.3648 81.5102C95.3648 100.457 145.207 95.8322 145.207 131.793C145.207 146.576 134.167 159.393 117.011 161.936Z" fill="#D8D8D8"/>
</svg>
