<svg width="78" height="78" viewBox="0 0 78 78" fill="none" xmlns="http://www.w3.org/2000/svg">
<path d="M39.0002 55.6499C35.7071 55.6499 32.488 54.6734 29.7499 52.8439C27.0119 51.0144 24.8778 48.414 23.6176 45.3716C22.3574 42.3292 22.0277 38.9815 22.6701 35.7517C23.3126 32.5219 24.8983 29.5552 27.2269 27.2266C29.5554 24.8981 32.5221 23.3123 35.7519 22.6699C38.9817 22.0274 42.3295 22.3572 45.3718 23.6174C48.4142 24.8776 51.0146 27.0116 52.8441 29.7497C54.6736 32.4878 55.6501 35.7069 55.6501 38.9999C55.6501 43.4158 53.896 47.6508 50.7735 50.7732C47.651 53.8957 43.416 55.6499 39.0002 55.6499ZM39.0002 13.1C13.1002 13.1 2.00024 38.9999 2.00024 38.9999C2.00024 38.9999 13.1002 64.8999 39.0002 64.8999C64.9001 64.8999 76.0001 38.9999 76.0001 38.9999C76.0001 38.9999 64.9001 13.1 39.0002 13.1Z" fill="#373737"/>
<path d="M39.0002 48.25C44.1089 48.25 48.2502 44.1086 48.2502 39C48.2502 33.8914 44.1089 29.75 39.0002 29.75C33.8916 29.75 29.7502 33.8914 29.7502 39C29.7502 44.1086 33.8916 48.25 39.0002 48.25Z" fill="#373737"/>
</svg>
