<svg width="78" height="78" viewBox="0 0 78 78" fill="none" xmlns="http://www.w3.org/2000/svg">
<path d="M11.1311 12.4824L14.6135 9L71.9207 66.3072L68.4383 69.7896L11.1311 12.4824ZM42.0549 29.2763L51.6435 38.8649C51.5103 36.3651 50.4573 34.0028 48.6871 32.2326C46.917 30.4625 44.5547 29.4095 42.0549 29.2763ZM40.9974 49.511L31.4088 39.9224C31.542 42.4222 32.595 44.7845 34.3652 46.5546C36.1353 48.3248 38.4976 49.3778 40.9974 49.511Z" fill="#373737"/>
<path d="M39.5 53.9833C37.1308 53.9834 34.7936 53.4656 32.6701 52.4703C30.5466 51.475 28.6942 50.029 27.2569 48.2447C25.8196 46.4605 24.8363 44.3861 24.3833 42.1831C23.9304 39.98 24.0201 37.7076 24.6454 35.5428L13.5654 25.0444C9.04008 28.9714 4.72808 34.096 1 39.3938C5.23821 46.0806 11.0357 52.9559 17.0737 56.8981C24.0005 61.4178 31.5321 63.7096 39.4615 63.7096C43.7948 63.7124 48.0957 63.0028 52.1729 61.6123L43.573 53.4666C42.2458 53.8107 40.8759 53.9845 39.5 53.9833ZM39.5 24.8043C41.8692 24.8042 44.2064 25.3219 46.3299 26.3173C48.4533 27.3126 50.3058 28.7586 51.7431 30.5428C53.1804 32.3271 54.1637 34.4014 54.6167 36.6045C55.0696 38.8076 54.9799 41.0799 54.3546 43.2448L65.6896 53.9833C70.3658 49.994 74.6842 44.6278 78 39.3938C73.7682 32.7936 67.9098 25.935 61.769 21.9442C54.7556 17.388 47.2497 15.078 39.4615 15.078C35.1759 15.0838 30.9262 15.8194 26.9153 17.2497L35.435 25.321C36.7596 24.9776 38.1267 24.8038 39.5 24.8043Z" fill="#373737"/>
</svg>
