<svg width="20" height="20" viewBox="0 0 20 20" fill="none" xmlns="http://www.w3.org/2000/svg">
<path d="M2.5 4.16667C2.5 3.72464 2.67559 3.30072 2.98816 2.98816C3.30072 2.67559 3.72464 2.5 4.16667 2.5H15.8333C16.2754 2.5 16.6993 2.67559 17.0118 2.98816C17.3244 3.30072 17.5 3.72464 17.5 4.16667V15.8333C17.5 16.2754 17.3244 16.6993 17.0118 17.0118C16.6993 17.3244 16.2754 17.5 15.8333 17.5H4.16667C3.72464 17.5 3.30072 17.3244 2.98816 17.0118C2.67559 16.6993 2.5 16.2754 2.5 15.8333V4.16667Z" stroke="#E4D43E" stroke-width="1.66667" stroke-linecap="round" stroke-linejoin="round"/>
<path d="M10.8333 12.5L11.6666 13.3333M9.99992 6.66663C10.4419 6.66663 10.8659 6.84222 11.1784 7.15478C11.491 7.46734 11.6666 7.89127 11.6666 8.33329V11.6666C11.6666 12.1087 11.491 12.5326 11.1784 12.8451C10.8659 13.1577 10.4419 13.3333 9.99992 13.3333C9.55789 13.3333 9.13397 13.1577 8.82141 12.8451C8.50885 12.5326 8.33325 12.1087 8.33325 11.6666V8.33329C8.33325 7.89127 8.50885 7.46734 8.82141 7.15478C9.13397 6.84222 9.55789 6.66663 9.99992 6.66663Z" stroke="#E4D43E" stroke-width="1.66667" stroke-linecap="round" stroke-linejoin="round"/>
</svg>
