<svg width="292" height="292" viewBox="0 0 292 292" fill="none" xmlns="http://www.w3.org/2000/svg">
<path fill-rule="evenodd" clip-rule="evenodd" d="M145.5 288C224.201 288 288 224.201 288 145.5C288 66.7994 224.201 3 145.5 3C66.7994 3 3 66.7994 3 145.5C3 224.201 66.7994 288 145.5 288ZM205.808 135.127L140.726 200.209C135.648 205.287 133.105 207.83 130.307 210.012C127.007 212.59 123.434 214.799 119.651 216.603C116.447 218.125 113.042 219.261 106.222 221.531L70.2931 233.516C68.6481 234.068 66.8817 234.15 65.1927 233.752C63.5037 233.355 61.9589 232.495 60.732 231.268C59.5051 230.041 58.6448 228.496 58.2476 226.807C57.8505 225.118 57.9323 223.352 58.4839 221.707L70.4691 185.778L70.5124 185.648C72.7539 178.923 73.8843 175.532 75.3969 172.349C77.2005 168.569 79.4105 164.995 81.9879 161.693C84.1702 158.895 86.7133 156.352 91.7907 151.274L91.7907 151.274L156.873 86.1917C161.447 97.1453 168.129 107.093 176.541 115.468C184.914 123.876 194.858 130.555 205.808 135.127ZM234 92.6023C234 101.779 230.354 110.581 223.865 117.07L216.06 124.875C204.673 121.066 194.334 114.647 185.868 106.132C177.6 97.9121 171.306 87.9228 167.459 76.9169L167.125 75.9401L174.93 68.1348C181.419 61.6456 190.221 58 199.398 58C208.575 58 217.376 61.6456 223.865 68.1348C230.354 74.624 234 83.4252 234 92.6023Z" fill="#373737"/>
</svg>
