<svg width="292" height="292" viewBox="0 0 292 292" fill="none" xmlns="http://www.w3.org/2000/svg">
<path fill-rule="evenodd" clip-rule="evenodd" d="M145.5 288C224.201 288 288 224.201 288 145.5C288 66.7994 224.201 3 145.5 3C66.7993 3 3 66.7994 3 145.5C3 224.201 66.7993 288 145.5 288ZM205.808 135.127L140.726 200.209C135.648 205.287 133.105 207.83 130.307 210.012C127.007 212.59 123.435 214.799 119.65 216.603C116.447 218.125 113.042 219.261 106.222 221.531L70.293 233.516C68.6479 234.068 66.8818 234.15 65.1929 233.752C63.5039 233.355 61.959 232.495 60.7319 231.268C59.5049 230.041 58.6445 228.496 58.2476 226.807C57.8506 225.118 57.9321 223.352 58.4839 221.707L70.4692 185.778L70.5088 185.658C72.7529 178.927 73.8833 175.534 75.397 172.349C77.2007 168.568 79.4106 164.995 81.9878 161.693C84.1704 158.895 86.7134 156.352 91.7905 151.274L156.873 86.1918C161.447 97.1454 168.129 107.093 176.541 115.468C184.914 123.876 194.858 130.555 205.808 135.127ZM234 92.6023C234 101.779 230.354 110.581 223.865 117.07L216.06 124.875C204.673 121.066 194.333 114.647 185.868 106.132C177.6 97.9121 171.306 87.9227 167.459 76.9169L167.125 75.9401L174.93 68.1348C181.419 61.6456 190.221 58 199.397 58C208.575 58 217.376 61.6456 223.865 68.1348C230.354 74.624 234 83.4252 234 92.6023Z" fill="#D8D8D8"/>
</svg>
