<svg width="52" height="52" viewBox="0 0 52 52" fill="none" xmlns="http://www.w3.org/2000/svg">
<path fill-rule="evenodd" clip-rule="evenodd" d="M14.4845 1.78607C17.3313 0.606907 20.3824 0 23.4637 0C26.545 0 29.5961 0.606907 32.4429 1.78607C35.2896 2.96523 37.8762 4.69355 40.055 6.87236C42.2338 9.05116 43.9622 11.6378 45.1413 14.4845C46.3205 17.3313 46.9274 20.3824 46.9274 23.4637C46.9274 26.545 46.3205 29.5961 45.1413 32.4429C44.3689 34.3077 43.3609 36.0608 42.1449 37.6608L51.0713 46.5873C52.3096 47.8255 52.3096 49.8331 51.0713 51.0713C49.8331 52.3096 47.8255 52.3096 46.5873 51.0713L37.6609 42.145C33.6014 45.2301 28.6201 46.9274 23.4637 46.9274C17.2407 46.9274 11.2727 44.4553 6.87236 40.055C2.47206 35.6547 0 29.6867 0 23.4637C0 17.2407 2.47206 11.2727 6.87236 6.87236C9.05116 4.69355 11.6378 2.96523 14.4845 1.78607ZM23.4637 6.3414C21.2152 6.3414 18.9887 6.78428 16.9113 7.64476C14.8339 8.50523 12.9464 9.76645 11.3564 11.3564C8.14535 14.5675 6.3414 18.9226 6.3414 23.4637C6.3414 28.0048 8.14535 32.3599 11.3564 35.571C14.5675 38.7821 18.9226 40.586 23.4637 40.586C28.0048 40.586 32.3599 38.7821 35.571 35.571C37.1609 33.981 38.4222 32.0935 39.2826 30.0161C40.1431 27.9387 40.586 25.7122 40.586 23.4637C40.586 21.2152 40.1431 18.9887 39.2826 16.9113C38.4222 14.8339 37.1609 12.9464 35.571 11.3564C33.981 9.76645 32.0935 8.50523 30.0161 7.64476C27.9387 6.78428 25.7122 6.3414 23.4637 6.3414Z" fill="#373737"/>
</svg>
