<svg width="360" height="360" viewBox="0 0 360 360" fill="none" xmlns="http://www.w3.org/2000/svg">
<path fill-rule="evenodd" clip-rule="evenodd" d="M180.111 359.667C279.4 359.667 359.889 279.178 359.889 179.889C359.889 80.6003 279.4 0.110901 180.111 0.110901C80.8222 0.110901 0.332764 80.6003 0.332764 179.889C0.332764 279.178 80.8222 359.667 180.111 359.667ZM275.747 79.2717L302.787 122.435C316.786 144.767 304.37 175.764 278.205 179.264C276.33 179.514 274.455 179.639 272.497 179.639C260.206 179.639 249.291 174.223 241.75 165.849C234.25 174.223 223.334 179.639 211.002 179.639C198.711 179.639 187.754 174.223 180.254 165.849C172.755 174.223 161.839 179.639 149.506 179.639C137.216 179.639 126.258 174.223 118.759 165.849C111.259 174.223 100.343 179.639 88.011 179.639C86.0945 179.639 84.178 179.514 82.3031 179.264C56.2217 175.723 43.8477 144.725 57.8049 122.435L84.8446 79.2717C87.2611 75.397 91.5524 73.0222 96.1354 73.0222H264.456C269.039 73.0222 273.33 75.397 275.747 79.2717ZM260.29 191.43C264.289 192.388 268.414 193.013 272.581 193.013C275.122 193.013 277.622 192.847 280.163 192.513C282.496 192.222 284.746 191.68 286.996 191.013V273.007C286.996 280.382 281.038 286.34 273.664 286.34H87.0111C79.6366 286.34 73.6788 280.382 73.6788 273.007V191.013C75.8869 191.638 78.1784 192.18 80.5116 192.513C82.9697 192.847 85.5112 193.013 88.011 193.013C92.1774 193.013 96.3021 192.347 100.302 191.43V233.01H260.29V191.43Z" fill="#373737"/>
</svg>
