<svg width="360" height="360" viewBox="0 0 360 360" fill="none" xmlns="http://www.w3.org/2000/svg">
<path fill-rule="evenodd" clip-rule="evenodd" d="M180.111 359.889C279.4 359.889 359.889 279.4 359.889 180.111C359.889 80.8221 279.4 0.332703 180.111 0.332703C80.8222 0.332703 0.332764 80.8221 0.332764 180.111C0.332764 279.4 80.8222 359.889 180.111 359.889ZM275.747 79.4934L302.787 122.657C316.786 144.989 304.37 175.986 278.205 179.486C276.33 179.736 274.455 179.861 272.497 179.861C260.206 179.861 249.291 174.445 241.75 166.07C234.25 174.445 223.334 179.861 211.002 179.861C198.711 179.861 187.754 174.445 180.254 166.07C172.755 174.445 161.839 179.861 149.506 179.861C137.216 179.861 126.258 174.445 118.759 166.07C111.259 174.445 100.343 179.861 88.011 179.861C86.0945 179.861 84.178 179.736 82.3031 179.486C56.2217 175.945 43.8477 144.947 57.8049 122.657L84.8446 79.4934C87.2611 75.6187 91.5524 73.2439 96.1354 73.2439H264.456C269.039 73.2439 273.33 75.6187 275.747 79.4934ZM260.29 191.652C264.289 192.61 268.414 193.235 272.581 193.235C275.122 193.235 277.622 193.068 280.163 192.735C282.496 192.443 284.746 191.902 286.996 191.235V273.229C286.996 280.603 281.038 286.561 273.664 286.561H87.0111C79.6366 286.561 73.6788 280.603 73.6788 273.229V191.235C75.8869 191.86 78.1784 192.402 80.5116 192.735C82.9697 193.068 85.5112 193.235 88.011 193.235C92.1774 193.235 96.3021 192.568 100.302 191.652V233.232H260.29V191.652Z" fill="#D8D8D8"/>
</svg>
