<svg width="208" height="201" viewBox="0 0 208 201" fill="none" xmlns="http://www.w3.org/2000/svg">
<path d="M206.922 196.082C206.219 197.298 205.209 198.308 203.993 199.01C202.776 199.712 201.396 200.082 199.992 200.082H7.9918C6.5882 200.08 5.20968 199.71 3.99467 199.007C2.77966 198.304 1.77092 197.294 1.06975 196.078C0.368571 194.862 -0.000360082 193.483 2.63718e-07 192.08C0.00036061 190.676 0.369999 189.297 1.0718 188.082C16.3018 161.752 39.7718 142.872 67.1618 133.922C53.6135 125.856 43.0873 113.566 37.1997 98.9396C31.3121 84.3128 30.3887 68.1577 34.5712 52.9552C38.7537 37.7528 47.811 24.3436 60.3521 14.7869C72.8931 5.23021 88.2245 0.0544434 103.992 0.0544434C119.759 0.0544434 135.091 5.23021 147.632 14.7869C160.173 24.3436 169.23 37.7528 173.412 52.9552C177.595 68.1577 176.672 84.3128 170.784 98.9396C164.896 113.566 154.37 125.856 140.822 133.922C168.212 142.872 191.682 161.752 206.912 188.082C207.615 189.297 207.987 190.676 207.989 192.08C207.99 193.485 207.622 194.865 206.922 196.082Z" fill="#373737"/>
</svg>
