<svg width="208" height="201" viewBox="0 0 208 201" fill="none" xmlns="http://www.w3.org/2000/svg">
<path d="M206.922 196.027C206.219 197.244 205.209 198.254 203.993 198.956C202.776 199.658 201.396 200.028 199.992 200.027H7.9918C6.5882 200.026 5.20968 199.655 3.99467 198.952C2.77966 198.25 1.77092 197.24 1.06975 196.024C0.368571 194.808 -0.000360082 193.429 2.63718e-07 192.025C0.00036061 190.622 0.369999 189.243 1.0718 188.027C16.3018 161.697 39.7718 142.817 67.1618 133.867C53.6135 125.802 43.0873 113.512 37.1997 98.8852C31.3121 84.2583 30.3887 68.1032 34.5712 52.9008C38.7537 37.6983 47.811 24.2891 60.3521 14.7325C72.8931 5.17576 88.2245 0 103.992 0C119.759 0 135.091 5.17576 147.632 14.7325C160.173 24.2891 169.23 37.6983 173.412 52.9008C177.595 68.1032 176.672 84.2583 170.784 98.8852C164.896 113.512 154.37 125.802 140.822 133.867C168.212 142.817 191.682 161.697 206.912 188.027C207.615 189.242 207.987 190.622 207.989 192.026C207.99 193.43 207.622 194.81 206.922 196.027Z" fill="#D8D8D8"/>
</svg>
