<svg width="208" height="201" viewBox="0 0 208 201" fill="none" xmlns="http://www.w3.org/2000/svg">
<path d="M206.922 196.054C206.219 197.271 205.209 198.281 203.993 198.983C202.776 199.685 201.396 200.055 199.992 200.054H7.9918C6.5882 200.053 5.20968 199.682 3.99467 198.98C2.77966 198.277 1.77092 197.267 1.06975 196.051C0.368571 194.835 -0.000360082 193.456 2.63718e-07 192.052C0.00036061 190.649 0.369999 189.27 1.0718 188.054C16.3018 161.724 39.7718 142.844 67.1618 133.894C53.6135 125.829 43.0873 113.539 37.1997 98.9124C31.3121 84.2855 30.3887 68.1304 34.5712 52.928C38.7537 37.7255 47.811 24.3164 60.3521 14.7597C72.8931 5.20298 88.2245 0.0272217 103.992 0.0272217C119.759 0.0272217 135.091 5.20298 147.632 14.7597C160.173 24.3164 169.23 37.7255 173.412 52.928C177.595 68.1304 176.672 84.2855 170.784 98.9124C164.896 113.539 154.37 125.829 140.822 133.894C168.212 142.844 191.682 161.724 206.912 188.054C207.615 189.27 207.987 190.649 207.989 192.053C207.99 193.457 207.622 194.837 206.922 196.054Z" fill="#E4D43E"/>
</svg>
