<svg width="20" height="20" viewBox="0 0 20 20" fill="none" xmlns="http://www.w3.org/2000/svg">
<path d="M2.5 4.16667C2.5 3.72464 2.67559 3.30072 2.98816 2.98816C3.30072 2.67559 3.72464 2.5 4.16667 2.5H15.8333C16.2754 2.5 16.6993 2.67559 17.0118 2.98816C17.3244 3.30072 17.5 3.72464 17.5 4.16667V15.8333C17.5 16.2754 17.3244 16.6993 17.0118 17.0118C16.6993 17.3244 16.2754 17.5 15.8333 17.5H4.16667C3.72464 17.5 3.30072 17.3244 2.98816 17.0118C2.67559 16.6993 2.5 16.2754 2.5 15.8333V4.16667Z" stroke="#E4D43E" stroke-width="1.66667" stroke-linecap="round" stroke-linejoin="round"/>
<path d="M8.33325 12.5C8.33325 12.721 8.42105 12.9329 8.57733 13.0892C8.73361 13.2455 8.94557 13.3333 9.16659 13.3333H10.8333C11.0543 13.3333 11.2662 13.2455 11.4225 13.0892C11.5788 12.9329 11.6666 12.721 11.6666 12.5V10.8333C11.6666 10.6123 11.5788 10.4003 11.4225 10.244C11.2662 10.0878 11.0543 9.99996 10.8333 9.99996H9.16659C8.94557 9.99996 8.73361 9.91216 8.57733 9.75588C8.42105 9.5996 8.33325 9.38764 8.33325 9.16663V7.49996C8.33325 7.27895 8.42105 7.06698 8.57733 6.9107C8.73361 6.75442 8.94557 6.66663 9.16659 6.66663H10.8333C11.0543 6.66663 11.2662 6.75442 11.4225 6.9107C11.5788 7.06698 11.6666 7.27895 11.6666 7.49996" stroke="#E4D43E" stroke-width="1.66667" stroke-linecap="round" stroke-linejoin="round"/>
</svg>
