<svg width="360" height="360" viewBox="0 0 360 360" fill="none" xmlns="http://www.w3.org/2000/svg">
<path fill-rule="evenodd" clip-rule="evenodd" d="M180.111 359.778C279.4 359.778 359.889 279.289 359.889 180C359.889 80.7112 279.4 0.221802 180.111 0.221802C80.8222 0.221802 0.332764 80.7112 0.332764 180C0.332764 279.289 80.8222 359.778 180.111 359.778ZM275.747 79.3825L302.787 122.546C316.786 144.878 304.37 175.875 278.205 179.375C276.33 179.625 274.455 179.75 272.497 179.75C260.206 179.75 249.291 174.334 241.75 165.959C234.25 174.334 223.334 179.75 211.002 179.75C198.711 179.75 187.754 174.334 180.254 165.959C172.755 174.334 161.839 179.75 149.506 179.75C137.216 179.75 126.258 174.334 118.759 165.959C111.259 174.334 100.343 179.75 88.011 179.75C86.0945 179.75 84.178 179.625 82.3031 179.375C56.2217 175.834 43.8477 144.836 57.8049 122.546L84.8446 79.3825C87.2611 75.5078 91.5524 73.133 96.1354 73.133H264.456C269.039 73.133 273.33 75.5078 275.747 79.3825ZM260.29 191.541C264.289 192.499 268.414 193.124 272.581 193.124C275.122 193.124 277.622 192.957 280.163 192.624C282.496 192.332 284.746 191.791 286.996 191.124V273.118C286.996 280.492 281.038 286.45 273.664 286.45H87.0111C79.6366 286.45 73.6788 280.492 73.6788 273.118V191.124C75.8869 191.749 78.1784 192.291 80.5116 192.624C82.9697 192.957 85.5112 193.124 88.011 193.124C92.1774 193.124 96.3021 192.457 100.302 191.541V233.121H260.29V191.541Z" fill="#E4D43E"/>
</svg>
