<svg width="24" height="24" viewBox="0 0 24 24" fill="none" xmlns="http://www.w3.org/2000/svg">
<circle cx="12" cy="12" r="12" fill="#E4D43E"/>
<path d="M18.9282 17.74C18.8809 17.8191 18.8129 17.8847 18.731 17.9304C18.6492 17.976 18.5563 18 18.4617 18H5.53794C5.44346 17.9999 5.35067 17.9758 5.26889 17.9301C5.1871 17.8845 5.1192 17.8188 5.07201 17.7398C5.02481 17.6608 4.99998 17.5712 5 17.4799C5.00002 17.3887 5.02491 17.2991 5.07214 17.2201C6.0973 15.5089 7.67709 14.2819 9.52075 13.7002C8.6088 13.176 7.90026 12.3773 7.50396 11.4267C7.10766 10.476 7.0455 9.42611 7.32704 8.43808C7.60857 7.45006 8.21822 6.57858 9.06238 5.95748C9.90654 5.33638 10.9385 5 11.9998 5C13.0612 5 14.0931 5.33638 14.9373 5.95748C15.7814 6.57858 16.3911 7.45006 16.6726 8.43808C16.9542 9.42611 16.892 10.476 16.4957 11.4267C16.0994 12.3773 15.3909 13.176 14.4789 13.7002C16.3226 14.2819 17.9024 15.5089 18.9275 17.2201C18.9749 17.2991 18.9999 17.3887 19 17.48C19.0001 17.5713 18.9754 17.6609 18.9282 17.74Z" fill="#373737"/>
</svg>
