<svg width="103" height="103" viewBox="0 0 103 103" fill="none" xmlns="http://www.w3.org/2000/svg">
<path d="M33.6421 30.0418H49.8088C50.3611 30.0418 50.8088 30.4895 50.8088 31.0418V37.6252C50.8088 38.1774 50.3611 38.6252 49.8088 38.6252H34.6421C34.0899 38.6252 33.6421 39.0729 33.6421 39.6252V46.2085C33.6421 46.7608 34.0899 47.2085 34.6421 47.2085H60.2255C62.5019 47.2085 64.6851 48.1128 66.2948 49.7225C67.9045 51.3322 68.8088 53.5154 68.8088 55.7918V64.3752C68.8088 66.6516 67.9045 68.8348 66.2948 70.4445C64.6851 72.0542 62.5019 72.9585 60.2255 72.9585L17.7039 72.9994C17.2816 72.9998 16.9046 72.7349 16.7618 72.3376L14.3814 65.7133C14.1472 65.0618 14.6301 64.3752 15.3224 64.3752H59.2255C59.7778 64.3752 60.2255 63.9274 60.2255 63.3752V56.7918C60.2255 56.2395 59.7778 55.7918 59.2255 55.7918H33.6421C31.3657 55.7918 29.1825 54.8875 27.5728 53.2778C25.9631 51.6681 25.0588 49.4849 25.0588 47.2085V38.6252C25.0588 36.3487 25.9631 34.1655 27.5728 32.5558C29.1825 30.9461 31.3657 30.0418 33.6421 30.0418ZM48.2338 8.5835C53.8697 8.5835 59.4504 9.69357 64.6573 11.8503C69.8642 14.0071 74.5953 17.1683 78.5805 21.1535C82.5657 25.1387 85.7269 29.8698 87.8836 35.0767C90.0404 40.2836 91.1505 45.8643 91.1505 51.5002C91.1505 62.8824 86.6289 73.7984 78.5805 81.8468C70.532 89.8953 59.616 94.4168 48.2338 94.4168C42.5979 94.4168 37.0172 93.3068 31.8103 91.15C26.6034 88.9932 21.8723 85.832 17.8871 81.8468C9.8387 73.7984 5.31714 62.8824 5.31714 51.5002C5.31714 40.118 9.8387 29.2019 17.8871 21.1535C25.9356 13.1051 36.8516 8.5835 48.2338 8.5835ZM48.2338 17.1668C39.128 17.1668 30.3952 20.7841 23.9565 27.2228C17.5177 33.6616 13.9005 42.3944 13.9005 51.5002C13.9005 60.6059 17.5177 69.3387 23.9565 75.7775C30.3952 82.2162 39.128 85.8335 48.2338 85.8335C57.3396 85.8335 66.0724 82.2162 72.5111 75.7775C78.9499 69.3387 82.5671 60.6059 82.5671 51.5002C82.5671 42.3944 78.9499 33.6616 72.5111 27.2228C66.0724 20.7841 57.3396 17.1668 48.2338 17.1668Z" fill="#E4D43E"/>
<path d="M65.4259 34.3886L62.9074 31.5H54.7039M65.4259 34.3886C65.4259 32.4629 68.2983 31.7231 68.2983 31.7231C68.2983 31.7231 70.3889 31.2842 72.9815 32.4629C74.5625 33.1817 75.5 34.3886 75.5 34.3886C75.5 34.3886 74.5625 35.5956 72.9815 36.3144C70.3889 37.4931 68.2143 36.7781 68.2143 36.7781C68.2143 36.7781 65.4259 36.3144 65.4259 34.3886ZM65.4259 34.3886L62.9074 37.2773H54.7039M59.4995 31.7231V37.5M54.7039 31.5H41.5V37.2773H54.7039M54.7039 31.5V37.2773" stroke="#E4D43E"/>
</svg>
