<svg width="257" height="256" viewBox="0 0 257 256" fill="none" xmlns="http://www.w3.org/2000/svg">
<path d="M128.793 24C108.224 24 88.1164 30.0995 71.0137 41.5272C53.911 52.9548 40.5811 69.1974 32.7095 88.2009C24.838 107.204 22.7785 128.115 26.7913 148.289C30.8042 168.463 40.7092 186.994 55.2539 201.539C69.7986 216.084 88.3296 225.989 108.504 230.002C128.678 234.015 149.589 231.955 168.592 224.083C187.596 216.212 203.838 202.882 215.266 185.779C226.694 168.677 232.793 148.569 232.793 128C232.764 100.426 221.797 73.9905 202.3 54.4931C182.802 34.9956 156.367 24.0291 128.793 24ZM72.793 128C72.793 130.122 71.9502 132.157 70.4499 133.657C68.9496 135.157 66.9147 136 64.793 136C62.6713 136 60.6365 135.157 59.1362 133.657C57.6359 132.157 56.793 130.122 56.793 128C56.8142 108.911 64.4067 90.6097 77.9047 77.1117C91.4027 63.6137 109.704 56.0212 128.793 56C130.915 56 132.95 56.8429 134.45 58.3431C135.95 59.8434 136.793 61.8783 136.793 64C136.793 66.1217 135.95 68.1566 134.45 69.6569C132.95 71.1571 130.915 72 128.793 72C113.946 72.0159 99.7112 77.921 89.2126 88.4196C78.714 98.9182 72.8089 113.153 72.793 128ZM104.793 128C104.793 123.253 106.201 118.613 108.838 114.666C111.475 110.72 115.223 107.643 119.609 105.827C123.994 104.01 128.82 103.535 133.475 104.461C138.131 105.387 142.407 107.673 145.764 111.029C149.12 114.386 151.406 118.662 152.332 123.318C153.258 127.973 152.783 132.799 150.966 137.184C149.15 141.57 146.073 145.318 142.127 147.955C138.18 150.592 133.54 152 128.793 152C122.428 152 116.323 149.471 111.822 144.971C107.322 140.47 104.793 134.365 104.793 128ZM128.793 200C126.671 200 124.636 199.157 123.136 197.657C121.636 196.157 120.793 194.122 120.793 192C120.793 189.878 121.636 187.843 123.136 186.343C124.636 184.843 126.671 184 128.793 184C143.64 183.984 157.875 178.079 168.373 167.58C178.872 157.082 184.777 142.847 184.793 128C184.793 125.878 185.636 123.843 187.136 122.343C188.636 120.843 190.671 120 192.793 120C194.915 120 196.95 120.843 198.45 122.343C199.95 123.843 200.793 125.878 200.793 128C200.772 147.089 193.179 165.39 179.681 178.888C166.183 192.386 147.882 199.979 128.793 200Z" fill="#E4D43E"/>
</svg>
