<svg width="1000" height="411" viewBox="0 0 1000 411" fill="none" xmlns="http://www.w3.org/2000/svg">
<g clip-path="url(#clip0_35_46)">
<g clip-path="url(#clip1_35_46)">
<path d="M477.916 56.1412H447.905V116.121H477.916C482.026 116.121 485.892 115.337 489.518 113.766C493.144 112.195 496.313 110.054 499.023 107.344C501.733 104.634 503.873 101.449 505.444 97.7973C507.016 94.1155 507.799 90.2196 507.799 86.1096C507.799 81.9997 507.016 78.1166 505.444 74.4647C503.873 70.8129 501.733 67.6276 499.023 64.9176C496.313 62.2076 493.144 60.067 489.518 58.4958C485.892 56.9246 482.026 56.1412 477.916 56.1412ZM447.905 146.004V176.015H417.936V26.1299H477.916C483.426 26.1299 488.718 26.8448 493.799 28.2705C498.881 29.6961 503.633 31.7254 508.056 34.3498C512.478 36.9485 516.533 40.0738 520.215 43.7257C523.866 47.4075 526.992 51.4746 529.59 55.9271C532.215 60.3796 534.244 65.1446 535.67 70.2263C537.095 75.3338 537.81 80.6297 537.81 86.1096C537.81 91.2771 537.168 96.2989 535.884 101.179C534.599 106.06 532.746 110.697 530.318 115.093C527.921 119.46 524.979 123.497 521.499 127.209C518.018 130.891 514.122 134.089 509.811 136.799L526.422 176.015H494.527L481.47 145.79L447.905 146.004ZM661.58 64.2755V176.015H654.645L643.599 160.646C640.859 163.099 637.978 165.385 634.951 167.495C631.924 169.606 628.743 171.447 625.404 173.018C622.064 174.589 618.627 175.831 615.086 176.743C611.576 177.655 608.009 178.113 604.383 178.113C596.506 178.113 589.099 176.786 582.164 174.131C575.228 171.477 569.179 167.624 564.011 162.572C558.818 157.52 554.721 151.342 551.724 144.034C548.727 136.726 547.229 128.395 547.229 119.032C547.229 110.328 548.727 102.335 551.724 95.0574C554.721 87.7793 558.818 81.5287 564.011 76.3057C569.179 71.0826 575.228 67.0154 582.164 64.1042C589.099 61.223 596.506 59.7802 604.383 59.7802C608.009 59.7802 611.605 60.2383 615.172 61.1502C618.712 62.0621 622.15 63.3207 625.489 64.9176C628.859 66.5145 632.053 68.3983 635.079 70.5688C638.106 72.7094 640.945 75.0341 643.599 77.5472L654.645 64.2755H661.58ZM632.81 119.032C632.81 115.149 632.07 111.382 630.584 107.73C629.073 104.048 627.031 100.794 624.462 97.9686C621.893 95.173 618.884 92.9168 615.429 91.2043C611.974 89.4918 608.292 88.6355 604.383 88.6355C600.474 88.6355 596.805 89.2906 593.38 90.6049C589.925 91.9449 586.929 93.9014 584.39 96.4702C581.851 99.0389 579.839 102.22 578.353 106.017C576.898 109.84 576.17 114.182 576.17 119.032C576.17 123.913 576.898 128.25 578.353 132.047C579.839 135.844 581.851 139.038 584.39 141.637C586.929 144.206 589.925 146.145 593.38 147.459C596.805 148.799 600.474 149.472 604.383 149.472C608.292 149.472 611.974 148.615 615.429 146.903C618.884 145.19 621.893 142.921 624.462 140.096C627.031 137.27 629.073 134.029 630.584 130.377C632.07 126.725 632.81 122.941 632.81 119.032ZM712.056 168.48V218.656H683.286V64.0614H690.221L701.609 77.5472C704.178 75.1198 706.991 72.825 710.043 70.6545C713.126 68.4839 716.324 66.6173 719.633 65.0461C722.943 63.5048 726.368 62.2761 729.908 61.3642C733.474 60.4523 737.071 59.9942 740.697 59.9942C748.574 59.9942 755.981 61.407 762.916 64.2326C769.822 67.0582 775.876 71.0398 781.069 76.1772C786.262 81.3446 790.359 87.5653 793.356 94.8433C796.353 102.121 797.851 110.183 797.851 119.032C797.851 128.25 796.353 136.529 793.356 143.863C790.359 151.227 786.262 157.465 781.069 162.572C775.876 167.71 769.822 171.635 762.916 174.345C755.981 177.055 748.574 178.413 740.697 178.413C738.184 178.413 735.688 178.143 733.205 177.599C730.752 177.03 728.311 176.272 725.884 175.33C723.486 174.388 721.119 173.331 718.777 172.162C716.465 170.963 714.226 169.735 712.056 168.48ZM769.21 119.032C769.21 114.293 768.469 110.054 766.983 106.317C765.472 102.549 763.43 99.3514 760.861 96.727C758.293 94.1283 755.266 92.1333 751.785 90.7333C748.275 89.3334 744.58 88.6355 740.697 88.6355C736.788 88.6355 733.106 89.3334 729.651 90.7333C726.196 92.1333 723.187 94.1283 720.618 96.727C718.049 99.3514 716.007 102.549 714.496 106.317C713.01 110.054 712.27 114.293 712.27 119.032C712.27 123.57 713.01 127.723 714.496 131.49C716.007 135.258 718.049 138.469 720.618 141.123C723.187 143.748 726.196 145.803 729.651 147.288C733.106 148.744 736.788 149.472 740.697 149.472C744.58 149.472 748.275 148.744 751.785 147.288C755.266 145.803 758.293 143.748 760.861 141.123C763.43 138.469 765.472 135.258 766.983 131.49C768.469 127.723 769.21 123.57 769.21 119.032Z" fill="#373737"/>
<path d="M537.168 307.063V366.229C530.203 372.167 522.441 376.718 513.878 379.886C505.316 383.054 496.398 384.638 487.121 384.638C480.014 384.638 473.164 383.709 466.571 381.856C459.978 380.002 453.826 377.39 448.119 374.021C442.412 370.626 437.189 366.585 432.45 361.905C427.71 357.196 423.673 351.96 420.334 346.193C416.995 340.456 414.396 334.279 412.542 327.655C410.688 321.032 409.759 314.17 409.759 307.063C409.759 299.956 410.688 293.136 412.542 286.599C414.396 280.036 416.995 273.883 420.334 268.147C423.673 262.38 427.71 257.157 432.45 252.477C437.189 247.768 442.412 243.744 448.119 240.404C453.826 237.035 459.978 234.441 466.571 232.613C473.164 230.759 480.014 229.83 487.121 229.83C496.398 229.83 505.316 231.414 513.878 234.582C522.441 237.75 530.203 242.301 537.168 248.239L521.499 274.354C516.961 269.761 511.738 266.147 505.83 263.523C499.892 260.924 493.658 259.627 487.121 259.627C480.558 259.627 474.406 260.881 468.669 263.395C462.932 265.908 457.893 269.303 453.556 273.584C449.245 277.865 445.837 282.874 443.324 288.611C440.811 294.378 439.557 300.525 439.557 307.063C439.557 313.686 440.811 319.894 443.324 325.686C445.837 331.453 449.245 336.505 453.556 340.842C457.893 345.153 462.932 348.561 468.669 351.074C474.406 353.587 480.558 354.841 487.121 354.841C490.888 354.841 494.54 354.383 498.081 353.471C501.647 352.559 505.029 351.301 508.227 349.704V307.063H537.168ZM647.88 381.385L638.462 368.327C636.18 370.412 633.722 372.381 631.098 374.235C628.473 376.063 625.733 377.66 622.878 379.03C620.022 380.4 617.085 381.483 614.059 382.284C611.032 383.084 607.949 383.482 604.811 383.482C597.906 383.482 591.424 382.254 585.375 379.801C579.295 377.373 573.987 373.905 569.448 369.397C564.88 364.915 561.284 359.452 558.66 353C556.061 346.548 554.764 339.33 554.764 331.337V269.431H583.191V331.337C583.191 335.075 583.761 338.431 584.904 341.398C586.047 344.365 587.588 346.865 589.527 348.89C591.497 350.915 593.779 352.444 596.377 353.471C599.002 354.529 601.814 355.055 604.811 355.055C607.722 355.055 610.492 354.37 613.117 353C615.741 351.66 618.027 349.862 619.967 347.606C621.906 345.38 623.434 342.854 624.548 340.028C625.661 337.233 626.217 334.334 626.217 331.337V269.431H654.773V381.385H647.88ZM774.561 289.51L721.046 353.985C722.159 354.357 723.272 354.584 724.385 354.67C725.499 354.786 726.612 354.841 727.725 354.841C730.52 354.841 733.205 354.456 735.773 353.685C738.342 352.915 740.77 351.814 743.052 350.389C745.308 348.963 747.32 347.221 749.088 345.166C750.886 343.111 752.342 340.829 753.455 338.316L774.347 359.336C771.693 363.104 768.64 366.486 765.185 369.483C761.73 372.48 758.006 375.019 754.011 377.103C750.017 379.188 745.804 380.772 741.382 381.856C736.959 382.939 732.404 383.482 727.725 383.482C719.847 383.482 712.441 382.014 705.505 379.073C698.57 376.162 692.503 372.094 687.31 366.871C682.143 361.648 678.063 355.428 675.066 348.205C672.069 340.983 670.571 333.05 670.571 324.402C670.571 315.553 672.069 307.478 675.066 300.17C678.063 292.862 682.143 286.629 687.31 281.461C692.503 276.294 698.57 272.287 705.505 269.431C712.441 266.575 719.847 265.15 727.725 265.15C732.404 265.15 736.972 265.706 741.425 266.819C745.877 267.933 750.103 269.547 754.097 271.657C758.121 273.742 761.876 276.294 765.357 279.321C768.837 282.347 771.907 285.742 774.561 289.51ZM702.423 339.258L735.688 295.161C734.348 294.677 733.034 294.361 731.749 294.219C730.465 294.078 729.125 294.005 727.725 294.005C723.816 294.005 720.134 294.72 716.679 296.146C713.254 297.571 710.27 299.614 707.732 302.268C705.163 304.922 703.151 308.103 701.695 311.815C700.239 315.552 699.512 319.748 699.512 324.402C699.512 325.459 699.567 326.641 699.683 327.955C699.768 329.295 699.94 330.639 700.197 331.98C700.424 333.349 700.71 334.664 701.053 335.918C701.425 337.173 701.879 338.286 702.423 339.258ZM850.339 381.385H785.093V352.957H850.339C852.278 352.957 853.948 352.26 855.348 350.86C856.748 349.46 857.445 347.79 857.445 345.851C857.445 343.826 856.748 342.498 855.348 341.869C853.948 341.24 852.278 340.927 850.339 340.927H820.627C815.691 340.927 811.067 339.985 806.756 338.102C802.419 336.218 798.652 333.662 795.454 330.438C792.255 327.185 789.73 323.404 787.876 319.093C786.022 314.782 785.093 310.145 785.093 305.179C785.093 300.243 786.022 295.619 787.876 291.308C789.73 286.971 792.255 283.204 795.454 280.006C798.652 276.808 802.419 274.282 806.756 272.428C811.067 270.574 815.691 269.645 820.627 269.645H878.466V298.072H820.627C818.688 298.072 817.018 298.77 815.618 300.17C814.218 301.57 813.52 303.24 813.52 305.179C813.52 307.204 814.218 308.934 815.618 310.359C817.018 311.785 818.688 312.5 820.627 312.5H850.339C855.219 312.5 859.813 313.313 864.124 314.94C868.435 316.597 872.203 318.879 875.427 321.79C878.625 324.731 881.163 328.255 883.047 332.365C884.931 336.475 885.873 340.97 885.873 345.851C885.873 350.787 884.931 355.398 883.047 359.679C881.163 363.99 878.625 367.758 875.427 370.981C872.203 374.235 868.435 376.774 864.124 378.602C859.813 380.456 855.219 381.385 850.339 381.385ZM962.464 381.385H897.261V352.957H962.464C964.433 352.957 966.115 352.26 967.515 350.86C968.885 349.46 969.57 347.79 969.57 345.851C969.57 343.826 968.885 342.498 967.515 341.869C966.115 341.24 964.433 340.927 962.464 340.927H932.795C927.859 340.927 923.218 339.985 918.881 338.102C914.57 336.218 910.819 333.662 907.621 330.438C904.397 327.185 901.872 323.404 900.044 319.093C898.19 314.782 897.261 310.145 897.261 305.179C897.261 300.243 898.19 295.619 900.044 291.308C901.872 286.971 904.397 283.204 907.621 280.006C910.819 276.808 914.57 274.282 918.881 272.428C923.218 270.574 927.859 269.645 932.795 269.645H990.591V298.072H932.795C930.855 298.072 929.186 298.77 927.786 300.17C926.386 301.57 925.688 303.24 925.688 305.179C925.688 307.204 926.386 308.934 927.786 310.359C929.186 311.785 930.855 312.5 932.795 312.5H962.464C967.344 312.5 971.955 313.313 976.292 314.94C980.603 316.597 984.353 318.879 987.551 321.79C990.775 324.731 993.331 328.255 995.215 332.365C997.099 336.475 998.04 340.97 998.04 345.851C998.04 350.787 997.099 355.398 995.215 359.679C993.331 363.99 990.775 367.758 987.551 370.981C984.353 374.235 980.603 376.774 976.292 378.602C971.955 380.456 967.344 381.385 962.464 381.385Z" fill="#373737"/>
</g>
<path opacity="0.5" d="M99.9336 205.383H0.933563V387.163H99.9336V205.383Z" fill="#373737"/>
<path opacity="0.75" d="M220.934 114.493H121.934V387.163H220.934V114.493Z" fill="#373737"/>
<path d="M342.306 23.6052H242.934V387.163H342.306V23.6052Z" fill="#373737"/>
</g>
<defs>
<clipPath id="clip0_35_46">
<rect width="1000" height="411" fill="white"/>
</clipPath>
<clipPath id="clip1_35_46">
<rect width="588.281" height="410.768" fill="white" transform="translate(409.759)"/>
</clipPath>
</defs>
</svg>
